<?xml version="1.0" encoding="UTF-8"?>
<svg width="399px" height="107px" viewBox="0 0 399 107" version="1.1" xmlns="http://www.w3.org/2000/svg" xmlns:xlink="http://www.w3.org/1999/xlink">
    <title>DATA</title>
    <g id="Page-1" stroke="none" stroke-width="1" fill="none" fill-rule="evenodd" stroke-opacity="0.1">
        <g id="Desktop-HD" transform="translate(0.000000, -459.000000)" fill-rule="nonzero" stroke="#FFFFFF" stroke-width="2">
            <path d="M20.3333333,565 C36.6944444,565 49.2291667,560.439394 57.9375,551.318182 C66.6458333,542.19697 71,529.257576 71,512.5 C71,495.742424 66.6458333,482.80303 57.9375,473.681818 C49.2291667,464.560606 36.6944444,460 20.3333333,460 L20.3333333,460 L-24,460 L-24,565 L20.3333333,565 Z M18.4444444,545 L4,545 L4,481 L18.4444444,481 C27.3333333,481 33.8148148,483.693333 37.8888889,489.08 C41.962963,494.466667 44,502.44 44,513 C44,523.56 41.962963,531.533333 37.8888889,536.92 C33.8148148,542.306667 27.3333333,545 18.4444444,545 L18.4444444,545 Z M107.411061,565 L114.743564,541.295455 L150.772297,541.295455 L157.955157,565 L186,565 L149.399103,460 L116.759342,460 L80,565 L107.411061,565 Z M145,523 L120,523 L127.94094,497.51145 L132.283327,481 L132.604986,481 L137.269031,497.671756 L145,523 Z M251.771144,565 L251.771144,481.159091 L286,481.159091 L286,460 L190,460 L190,481.159091 L224.38806,481.159091 L224.38806,565 L251.771144,565 Z M318.411061,565 L325.743564,541.295455 L361.770096,541.295455 L368.955157,565 L397,565 L360.399103,460 L327.759342,460 L291,565 L318.411061,565 Z M356,523 L331,523 L338.942464,497.51145 L343.284464,481 L343.606093,481 L348.269722,497.671756 L356,523 Z" id="DATA"></path>
        </g>
    </g>
</svg>