<?xml version="1.0" encoding="UTF-8"?>
<svg width="400px" height="107px" viewBox="0 0 400 107" version="1.1" xmlns="http://www.w3.org/2000/svg" xmlns:xlink="http://www.w3.org/1999/xlink">
    <title>FLOW</title>
    <g id="Page-1" stroke="none" stroke-width="1" fill="none" fill-rule="evenodd" stroke-opacity="0.1">
        <g id="Desktop-HD" transform="translate(-1040.000000, -459.000000)" fill-rule="nonzero" stroke="#FFFFFF" stroke-width="2">
            <path d="M1067.48733,563 L1067.48733,523.745455 L1109.37427,523.745455 L1109.37427,503.190909 L1067.48733,503.190909 L1067.48733,481.554545 L1120,481.554545 L1120,461 L1041,461 L1041,563 L1067.48733,563 Z M1213,563 L1213,542.445455 L1161.67197,542.445455 L1161.67197,461 L1135,461 L1135,563 L1213,563 Z M1274.07728,565 C1284.38125,565 1293.26842,562.915441 1300.73879,558.746324 C1308.20917,554.577206 1313.95363,548.580882 1317.97218,540.757353 C1321.99073,532.933824 1324,523.514706 1324,512.5 C1324,501.485294 1321.99073,492.066176 1317.97218,484.242647 C1313.95363,476.419118 1308.20917,470.422794 1300.73879,466.253676 C1293.26842,462.084559 1284.38125,460 1274.07728,460 C1263.77331,460 1254.86038,462.084559 1247.33849,466.253676 C1239.81659,470.422794 1234.04637,476.419118 1230.02782,484.242647 C1226.00927,492.066176 1224,501.485294 1224,512.5 C1224,523.514706 1226.00927,532.933824 1230.02782,540.757353 C1234.04637,548.580882 1239.81659,554.577206 1247.33849,558.746324 C1254.86038,562.915441 1263.77331,565 1274.07728,565 Z M1274.07797,544 C1269.08814,544 1264.87797,542.821951 1261.44746,540.465854 C1258.01695,538.109756 1255.41808,534.57561 1253.65085,529.863415 C1251.88362,525.15122 1251,519.363415 1251,512.5 C1251,505.534146 1251.88362,499.720732 1253.65085,495.059756 C1255.41808,490.39878 1258.01695,486.890244 1261.44746,484.534146 C1264.87797,482.178049 1269.08814,481 1274.07797,481 C1279.0678,481 1283.25198,482.178049 1286.63051,484.534146 C1290.00904,486.890244 1292.58192,490.39878 1294.34915,495.059756 C1296.11638,499.720732 1297,505.534146 1297,512.5 C1297,519.363415 1296.11638,525.15122 1294.34915,529.863415 C1292.58192,534.57561 1290.00904,538.109756 1286.63051,540.465854 C1283.25198,542.821951 1279.0678,544 1274.07797,544 Z M1391.19447,563 L1403.09519,513.545455 L1407.57728,488.663636 L1407.88639,488.663636 L1412.52303,513.545455 L1424.5783,563 L1453.48004,563 L1483,461 L1455.64381,461 L1438.64278,541.363636 L1419.94166,461 L1395.83112,461 L1377.59365,541.518182 L1360.28352,461 L1332,461 L1361.3654,563 L1391.19447,563 Z" id="FLOW"></path>
        </g>
    </g>
</svg>